<svg width="159" height="27" viewBox="0 0 159 27" fill="none" xmlns="http://www.w3.org/2000/svg">
<path d="M145.293 7.74857H152.776V22.0967H145.293V7.74857ZM139.253 5.15589H158.816V10.7243H139.253V5.15589Z" fill="url(#paint0_linear_9_4)"/>
<path fill-rule="evenodd" clip-rule="evenodd" d="M121.459 21.5074C123.148 22.2538 125.113 22.627 127.352 22.627C129.591 22.627 131.545 22.2538 133.215 21.5074C134.904 20.761 136.21 19.7102 137.133 18.355C138.076 16.9997 138.547 15.4284 138.547 13.641C138.547 11.834 138.076 10.2528 137.133 8.89759C136.21 7.54233 134.904 6.49151 133.215 5.74513C131.545 4.99875 129.591 4.62556 127.352 4.62556C125.113 4.62556 123.148 4.99875 121.459 5.74513C119.79 6.49151 118.484 7.54233 117.541 8.89759C116.618 10.2528 116.156 11.834 116.156 13.641C116.156 15.4284 116.618 16.9997 117.541 18.355C118.484 19.7102 119.79 20.761 121.459 21.5074Z" fill="url(#paint1_linear_9_4)"/>
<path d="M122.943 8.83773C124.774 8.83773 126.258 10.3217 126.258 12.1522C126.258 12.757 126.094 13.3232 125.811 13.8114C125.238 13.0409 124.17 12.5203 122.943 12.5203C121.716 12.5204 120.647 13.0406 120.074 13.8114C119.791 13.3233 119.629 12.7568 119.629 12.1522C119.629 10.3217 121.113 8.83775 122.943 8.83773Z" fill="#020617"/>
<path d="M131.782 8.83773C133.612 8.83773 135.096 10.3217 135.096 12.1522C135.096 12.757 134.933 13.3232 134.65 13.8114C134.077 13.0409 133.008 12.5203 131.782 12.5203C130.555 12.5204 129.486 13.0407 128.913 13.8114C128.63 13.3233 128.467 12.7568 128.467 12.1522C128.467 10.3217 129.951 8.83775 131.782 8.83773Z" fill="#020617"/>
<path d="M119.077 2.20967C118.542 4.99756 118.018 7.15559 118.482 9.9435L125.621 6.96895C124.023 4.54677 122.08 3.54019 119.077 2.20967Z" fill="url(#paint2_linear_9_4)"/>
<path d="M135.847 2.20967C136.382 4.99756 136.906 7.15559 136.442 9.9435L129.303 6.96895C130.901 4.54677 132.844 3.54019 135.847 2.20967Z" fill="url(#paint3_linear_9_4)"/>
<path d="M94.9958 22.0967V5.15589H102.479V16.4399L100.329 15.6739L108.843 5.15589H116.533L101.536 22.0967H94.9958ZM108.637 22.0967L104.1 13.9062L109.874 10.2234L116.945 22.0967H108.637Z" fill="url(#paint4_linear_9_4)"/>
<path d="M81.6621 22.627C79.4229 22.627 77.4588 22.2538 75.7696 21.5074C74.1001 20.761 72.7939 19.7102 71.8512 18.355C70.928 16.9997 70.4664 15.4284 70.4664 13.641C70.4664 11.834 70.928 10.2528 71.8512 8.89759C72.7939 7.54233 74.1001 6.49151 75.7696 5.74513C77.4588 4.99875 79.4229 4.62556 81.6621 4.62556C83.9012 4.62556 85.8555 4.99875 87.5251 5.74513C89.2142 6.49151 90.5204 7.54233 91.4435 8.89759C92.3863 10.2528 92.8577 11.834 92.8577 13.641C92.8577 15.4284 92.3863 16.9997 91.4435 18.355C90.5204 19.7102 89.2142 20.761 87.5251 21.5074C85.8555 22.2538 83.9012 22.627 81.6621 22.627ZM81.6621 17.1765C82.4477 17.1765 83.1057 17.039 83.636 16.764C84.186 16.489 84.5985 16.0864 84.8735 15.556C85.1681 15.0257 85.3154 14.3874 85.3154 13.641C85.3154 12.875 85.1681 12.2268 84.8735 11.6965C84.5985 11.1662 84.186 10.7635 83.636 10.4885C83.1057 10.2136 82.4477 10.0761 81.6621 10.0761C80.8961 10.0761 80.2381 10.2136 79.6881 10.4885C79.1381 10.7635 78.7159 11.1662 78.4212 11.6965C78.1463 12.2268 78.0088 12.875 78.0088 13.641C78.0088 14.3874 78.1463 15.0257 78.4212 15.556C78.7159 16.0864 79.1381 16.489 79.6881 16.764C80.2381 17.039 80.8961 17.1765 81.6621 17.1765Z" fill="url(#paint5_linear_9_4)"/>
<path d="M46.5731 5.15588H54.0565V9.33952L53.7619 10.1645V15.7623L54.0565 17.3827V26.9579H46.5731V5.15588ZM51.8469 13.641C52.0433 11.7947 52.5245 10.2037 53.2905 8.86812C54.0762 7.51286 55.0975 6.47186 56.3546 5.74513C57.6116 4.99875 59.0356 4.62556 60.6266 4.62556C62.2961 4.62556 63.7496 4.99875 64.987 5.74513C66.2244 6.49151 67.1869 7.54233 67.8743 8.89759C68.5814 10.2528 68.9349 11.834 68.9349 13.641C68.9349 15.4284 68.5814 16.9997 67.8743 18.355C67.1869 19.7102 66.2244 20.761 64.987 21.5074C63.7496 22.2538 62.2961 22.627 60.6266 22.627C59.016 22.627 57.5822 22.2538 56.3251 21.5074C55.0877 20.761 54.086 19.72 53.32 18.3844C52.554 17.0292 52.0629 15.448 51.8469 13.641ZM61.3926 13.641C61.3926 12.9928 61.2551 12.4134 60.9801 11.9027C60.7248 11.3921 60.3516 10.9894 59.8606 10.6948C59.3892 10.4002 58.8392 10.2528 58.2107 10.2528C57.5625 10.2528 56.934 10.4002 56.3251 10.6948C55.7162 10.9894 55.1859 11.3921 54.7342 11.9027C54.2824 12.4134 53.9583 12.9928 53.7619 13.641C53.9583 14.2892 54.2824 14.8686 54.7342 15.3793C55.1859 15.8703 55.7162 16.2631 56.3251 16.5578C56.934 16.8524 57.5625 16.9997 58.2107 16.9997C58.8392 16.9997 59.3892 16.8524 59.8606 16.5578C60.3516 16.2631 60.7248 15.8703 60.9801 15.3793C61.2551 14.8686 61.3926 14.2892 61.3926 13.641Z" fill="url(#paint6_linear_9_4)"/>
<path d="M44.7531 5.15589V10.7243H33.1744L36.592 7.30663V22.0967H29.1086V5.15589H44.7531Z" fill="url(#paint7_linear_9_4)"/>
<path d="M0 22.0967V0H7.54233V17.9425L5.59782 17.5006L16.2042 0H26.133V22.0967H18.5907V3.68278L20.5352 4.12471L9.63415 22.0967H0Z" fill="url(#paint8_linear_9_4)"/>
<defs>
<linearGradient id="paint0_linear_9_4" x1="-53.0935" y1="11.0483" x2="210.593" y2="11.0483" gradientUnits="userSpaceOnUse">
<stop stop-color="#A78BFA"/>
<stop offset="1" stop-color="#E879F9"/>
</linearGradient>
<linearGradient id="paint1_linear_9_4" x1="-53.0935" y1="11.0483" x2="210.593" y2="11.0483" gradientUnits="userSpaceOnUse">
<stop stop-color="#A78BFA"/>
<stop offset="1" stop-color="#E879F9"/>
</linearGradient>
<linearGradient id="paint2_linear_9_4" x1="70.9017" y1="4.75678" x2="145.373" y2="4.75678" gradientUnits="userSpaceOnUse">
<stop stop-color="#A78BFA"/>
<stop offset="1" stop-color="#E879F9"/>
</linearGradient>
<linearGradient id="paint3_linear_9_4" x1="184.022" y1="4.75678" x2="109.551" y2="4.75678" gradientUnits="userSpaceOnUse">
<stop stop-color="#A78BFA"/>
<stop offset="1" stop-color="#E879F9"/>
</linearGradient>
<linearGradient id="paint4_linear_9_4" x1="-53.0936" y1="11.0483" x2="210.593" y2="11.0483" gradientUnits="userSpaceOnUse">
<stop stop-color="#A78BFA"/>
<stop offset="1" stop-color="#E879F9"/>
</linearGradient>
<linearGradient id="paint5_linear_9_4" x1="-53.0936" y1="11.0483" x2="210.593" y2="11.0483" gradientUnits="userSpaceOnUse">
<stop stop-color="#A78BFA"/>
<stop offset="1" stop-color="#E879F9"/>
</linearGradient>
<linearGradient id="paint6_linear_9_4" x1="-53.0935" y1="11.0483" x2="210.593" y2="11.0483" gradientUnits="userSpaceOnUse">
<stop stop-color="#A78BFA"/>
<stop offset="1" stop-color="#E879F9"/>
</linearGradient>
<linearGradient id="paint7_linear_9_4" x1="-53.0936" y1="11.0483" x2="210.593" y2="11.0483" gradientUnits="userSpaceOnUse">
<stop stop-color="#A78BFA"/>
<stop offset="1" stop-color="#E879F9"/>
</linearGradient>
<linearGradient id="paint8_linear_9_4" x1="-53.0936" y1="11.0483" x2="210.593" y2="11.0483" gradientUnits="userSpaceOnUse">
<stop stop-color="#A78BFA"/>
<stop offset="1" stop-color="#E879F9"/>
</linearGradient>
</defs>
</svg>
