<svg xmlns="http://www.w3.org/2000/svg" viewBox="0 0 320 200" fill="none">
  <rect width="320" height="200" rx="16" fill="#0f172a"/>
  <rect x="24" y="24" width="64" height="40" rx="6" fill="#334155"/>
  <rect x="104" y="24" width="64" height="40" rx="6" fill="#334155"/>
  <rect x="184" y="24" width="64" height="40" rx="6" fill="#334155"/>
  <rect x="264" y="24" width="32" height="40" rx="6" fill="#334155"/>
  <rect x="24" y="80" width="64" height="40" rx="6" fill="#334155"/>
  <rect x="104" y="80" width="64" height="40" rx="6" fill="#94a3b8"/>
  <rect x="184" y="80" width="64" height="40" rx="6" fill="#334155"/>
  <rect x="264" y="80" width="32" height="40" rx="6" fill="#334155"/>
  <rect x="24" y="136" width="64" height="40" rx="6" fill="#334155"/>
  <rect x="104" y="136" width="64" height="40" rx="6" fill="#334155"/>
  <rect x="184" y="136" width="64" height="40" rx="6" fill="#334155"/>
  <rect x="264" y="136" width="32" height="40" rx="6" fill="#334155"/>
  <path d="M128 96h16v8h-16z" fill="#e2e8f8"/>
</svg>
