<svg xmlns="http://www.w3.org/2000/svg" viewBox="0 0 480 300" fill="none" role="img" aria-hidden="true">
  <defs>
    <linearGradient id="cg-border" x1="0" y1="0" x2="480" y2="300" gradientUnits="userSpaceOnUse">
      <stop stop-color="#a78bfa"/>
      <stop offset="1" stop-color="#e879f9"/>
    </linearGradient>
    <linearGradient id="cg-glow" x1="240" y1="40" x2="240" y2="260" gradientUnits="userSpaceOnUse">
      <stop stop-color="#6d28d9" stop-opacity="0.35"/>
      <stop offset="1" stop-color="#0f172a" stop-opacity="0"/>
    </linearGradient>
  </defs>
  <rect width="480" height="300" rx="20" fill="#020617"/>
  <rect x="24" y="24" width="432" height="252" rx="16" fill="url(#cg-glow)"/>
  <!-- TV -->
  <rect x="72" y="56" width="240" height="148" rx="12" stroke="url(#cg-border)" stroke-width="2.5" fill="#1e1b4b"/>
  <rect x="88" y="72" width="208" height="116" rx="8" fill="#0f172a" stroke="#4c1d95" stroke-opacity="0.5"/>
  <text x="192" y="138" fill="#c4b5fd" font-family="Unbounded,system-ui,sans-serif" font-size="22" font-weight="600">?</text>
  <rect x="176" y="212" width="32" height="8" rx="3" fill="#475569"/>
  <rect x="156" y="220" width="72" height="6" rx="3" fill="#334155"/>
  <!-- Phone -->
  <rect x="340" y="88" width="72" height="132" rx="14" stroke="#94a3b8" stroke-width="2" fill="#0f172a"/>
  <rect x="352" y="104" width="48" height="72" rx="6" fill="#312e81"/>
  <circle cx="376" cy="192" r="6" fill="#475569"/>
  <!-- Word bubbles -->
  <ellipse cx="148" cy="188" rx="42" ry="22" fill="#581c87" fill-opacity="0.6"/>
  <ellipse cx="268" cy="74" rx="38" ry="18" fill="#86198f" fill-opacity="0.55"/>
  <path d="M152 108h56v12h-56z" fill="#a78bfa" fill-opacity="0.25" rx="2"/>
  <path d="M184 124h48v10h-48z" fill="#e879f9" fill-opacity="0.2"/>
</svg>
